<mxfile host="drawio-plugin" modified="2021-12-18T16:22:31.445Z" agent="5.0 (X11; Linux x86_64) AppleWebKit/537.36 (KHTML, like Gecko) Chrome/89.0.4389.114 Safari/537.36" version="14.7.4" etag="UQ16zBk-D04KOEAKzi-E" type="embed"><diagram id="ckZ920h0aaDGfWXUp7Z1" name="Page-1"><mxGraphModel dx="687" dy="571" grid="1" gridSize="10" guides="1" tooltips="1" connect="1" arrows="1" fold="1" page="1" pageScale="1" pageWidth="827" pageHeight="1169" math="0" shadow="0"><root><mxCell id="0"/><mxCell id="1" parent="0"/><mxCell id="13" value="" style="group;fillColor=#2a2a2a;strokeWidth=14;" vertex="1" connectable="0" parent="1"><mxGeometry x="120" y="130" width="210" height="150" as="geometry"/></mxCell><mxCell id="11" value="" style="rounded=0;whiteSpace=wrap;html=1;strokeColor=#A50040;fontColor=#ffffff;fillColor=none;" vertex="1" parent="13"><mxGeometry width="210" height="150" as="geometry"/></mxCell><mxCell id="12" value="Episode" style="text;html=1;strokeColor=none;fillColor=none;align=center;verticalAlign=middle;whiteSpace=wrap;rounded=0;fontSize=18;" vertex="1" parent="13"><mxGeometry x="61.78999999999999" y="47.5" width="86.43" height="55" as="geometry"/></mxCell><mxCell id="22" style="edgeStyle=orthogonalEdgeStyle;rounded=0;orthogonalLoop=1;jettySize=auto;html=1;fontSize=18;fillColor=#d80073;strokeColor=#A50040;" edge="1" parent="1" source="15" target="19"><mxGeometry relative="1" as="geometry"/></mxCell><mxCell id="15" value="" style="rounded=0;whiteSpace=wrap;html=1;strokeColor=#A50040;fontColor=#ffffff;" vertex="1" parent="1"><mxGeometry x="414" y="130" width="210" height="150" as="geometry"/></mxCell><mxCell id="14" value="" style="group;verticalAlign=top;" vertex="1" connectable="0" parent="1"><mxGeometry x="414" y="130" width="210" height="150" as="geometry"/></mxCell><mxCell id="16" value="Category" style="text;html=1;strokeColor=none;fillColor=none;align=center;verticalAlign=middle;whiteSpace=wrap;rounded=0;fontSize=18;" vertex="1" parent="14"><mxGeometry x="61.78999999999999" y="47.5" width="86.43" height="55" as="geometry"/></mxCell><mxCell id="18" value="" style="group;fillColor=#60a917;strokeColor=#2D7600;fontColor=#ffffff;" vertex="1" connectable="0" parent="1"><mxGeometry x="280" y="400" width="210" height="150" as="geometry"/></mxCell><mxCell id="19" value="" style="rounded=0;whiteSpace=wrap;html=1;strokeColor=#2D7600;fontColor=#ffffff;" vertex="1" parent="18"><mxGeometry width="210" height="150" as="geometry"/></mxCell><mxCell id="20" value="Author" style="text;html=1;strokeColor=none;fillColor=none;align=center;verticalAlign=middle;whiteSpace=wrap;rounded=0;fontSize=18;" vertex="1" parent="18"><mxGeometry x="61.78999999999999" y="47.5" width="86.43" height="55" as="geometry"/></mxCell><mxCell id="21" style="edgeStyle=orthogonalEdgeStyle;rounded=0;orthogonalLoop=1;jettySize=auto;html=1;entryX=0.5;entryY=0;entryDx=0;entryDy=0;fontSize=18;fillColor=#d80073;strokeColor=#A50040;" edge="1" parent="1" source="11" target="19"><mxGeometry relative="1" as="geometry"/></mxCell><mxCell id="23" style="edgeStyle=orthogonalEdgeStyle;rounded=0;orthogonalLoop=1;jettySize=auto;html=1;entryX=0;entryY=0.5;entryDx=0;entryDy=0;fontSize=18;" edge="1" parent="1" source="11" target="15"><mxGeometry relative="1" as="geometry"/></mxCell><mxCell id="26" style="edgeStyle=orthogonalEdgeStyle;rounded=0;orthogonalLoop=1;jettySize=auto;html=1;entryX=0;entryY=0.25;entryDx=0;entryDy=0;fontSize=18;fillColor=#60a917;strokeColor=#2D7600;" edge="1" parent="1" source="19" target="11"><mxGeometry relative="1" as="geometry"><Array as="points"><mxPoint x="100" y="475"/><mxPoint x="100" y="167"/></Array></mxGeometry></mxCell></root></mxGraphModel></diagram></mxfile>